<?xml version="1.0" encoding="UTF-8" standalone="no"?>
<svg
   xmlns:dc="http://purl.org/dc/elements/1.1/"
   xmlns:cc="http://creativecommons.org/ns#"
   xmlns:rdf="http://www.w3.org/1999/02/22-rdf-syntax-ns#"
   xmlns:svg="http://www.w3.org/2000/svg"
   xmlns="http://www.w3.org/2000/svg"
   xmlns:sodipodi="http://sodipodi.sourceforge.net/DTD/sodipodi-0.dtd"
   xmlns:inkscape="http://www.inkscape.org/namespaces/inkscape"
   height="300px"
   width="300px"
   fill="#000000"
   version="1.1"
   x="0px"
   y="0px"
   viewBox="0 0 100 100"
   enable-background="new 0 0 100 100"
   xml:space="preserve"
   id="svg14"
   sodipodi:docname="icon.svg"
   inkscape:version="1.0.1 (1.0.1+r73)"><metadata
     id="metadata20"><rdf:RDF><cc:Work
         rdf:about=""><dc:format>image/svg+xml</dc:format><dc:type
           rdf:resource="http://purl.org/dc/dcmitype/StillImage" /></cc:Work></rdf:RDF></metadata><defs
     id="defs18" /><sodipodi:namedview
     pagecolor="#ffffff"
     bordercolor="#666666"
     borderopacity="1"
     objecttolerance="10"
     gridtolerance="10"
     guidetolerance="10"
     inkscape:pageopacity="0"
     inkscape:pageshadow="2"
     inkscape:window-width="1920"
     inkscape:window-height="1023"
     id="namedview16"
     showgrid="false"
     inkscape:zoom="0.50204582"
     inkscape:cx="-329.11356"
     inkscape:cy="194.53743"
     inkscape:window-x="0"
     inkscape:window-y="0"
     inkscape:window-maximized="1"
     inkscape:current-layer="svg14" /><g
     id="g12"><path
       fill="#000000"
       d="M35.264,72.368H11.209c-1.702,0-3.085,1.385-3.085,3.088v12.499c0,1.712,1.383,3.086,3.085,3.086h24.055   c1.707,0,3.085-1.374,3.085-3.086V75.456C38.35,73.753,36.971,72.368,35.264,72.368z"
       id="path2" /><path
       fill="#000000"
       d="M88.787,72.368H64.736c-1.713,0-3.088,1.397-3.088,3.088v12.499c0,1.712,1.375,3.095,3.088,3.095h24.051   c1.697,0,3.088-1.383,3.088-3.095V75.456C91.875,73.766,90.484,72.368,88.787,72.368z"
       id="path4" /><path
       fill="#000000"
       d="M64.82,70.565h23.877V56.898c0-0.231-0.016-0.448-0.066-0.656l-6.412-29.199   c-0.174-0.795-0.676-1.443-1.318-1.877c-0.561-0.597-1.338-0.972-2.223-0.972H56.486c-1.697,0-3.082,1.383-3.082,3.094v1.084   h-6.802v-1.084c0-1.711-1.387-3.094-3.093-3.094H21.323c-0.876,0-1.665,0.375-2.237,0.981c-0.64,0.425-1.14,1.073-1.309,1.868   l-6.405,29.189c-0.046,0.218-0.074,0.435-0.074,0.656v13.677h23.883V63.37h8.329c1.707,0,3.093-1.394,3.093-3.096v-1.626h6.802   v1.636c0,1.701,1.385,3.086,3.082,3.086h8.334V70.565z"
       id="path6" /><path
       fill="#000000"
       d="M76.668,12.035c0-1.699-1.385-3.084-3.096-3.084H60.479c-1.688,0-3.088,1.385-3.088,3.084v10.615h19.277   V12.035z"
       id="path8" /><path
       fill="#000000"
       d="M42.598,12.035c0-1.699-1.376-3.084-3.08-3.084H26.431c-1.707,0-3.085,1.385-3.085,3.084v10.615h19.252   V12.035z"
       id="path10" /></g><g
     id="g857"
     transform="matrix(0.24848873,0,0,0.24848873,33.776062,27.603613)"><rect
       style="fill:#ffffff;fill-opacity:1"
       id="rect832"
       width="82.19175"
       height="81.380943"
       x="26.236219"
       y="24.137899"
       ry="40.690472" /><g
       id="svg_2"
       style="fill:#008000"
       transform="matrix(5.9735944,0,0,5.7199542,-6.8409386,-4.6272509)"><path
         fill="none"
         d="M 0,0 H 24 V 24 H 0 Z"
         id="path847" /><path
         d="M 12,1 3,5 v 6 c 0,5.55 3.84,10.74 9,12 5.16,-1.26 9,-6.45 9,-12 V 5 Z M 10,17 6,13 7.41,11.59 10,14.17 16.59,7.58 18,9 Z"
         id="path849"
         style="fill:#44ab5e;fill-opacity:1" /></g></g></svg>
